<svg width="24" height="24" viewBox="0 0 24 24" xmlns="http://www.w3.org/2000/svg">
    <path fill-rule="evenodd" clip-rule="evenodd" d="M12 2C6.477 2 2 6.477 2 12C2 17.523 6.477 22 12 22C17.523 22 22 17.523 22 12C22 6.477 17.523 2 12 2ZM6.56 19.152L6.583 19.157C7.045 16.758 9.323 15.016 12 15.016C14.673 15.016 16.951 16.755 17.416 19.151L17.451 19.145C15.937 20.303 14.05 21 12 21C9.955 21 8.073 20.306 6.56 19.152ZM18.25 18.462C17.492 15.863 14.961 14.016 12 14.016C9.037 14.016 6.508 15.862 5.75 18.462C4.058 16.824 3 14.535 3 12C3 7.037 7.037 3 12 3C16.963 3 21 7.037 21 12C21 14.535 19.942 16.824 18.25 18.462ZM12 11.9444C10.874 11.9444 9.667 9.9234 9.667 8.5004C9.667 7.2134 10.713 6.1664 12 6.1664C13.287 6.1664 14.333 7.2134 14.333 8.5004C14.333 9.9234 13.126 11.9444 12 11.9444ZM12 5.1664C10.159 5.1664 8.667 6.6594 8.667 8.5004C8.667 10.3404 10.159 12.9444 12 12.9444C13.841 12.9444 15.333 10.3404 15.333 8.5004C15.333 6.6594 13.841 5.1664 12 5.1664Z" />
</svg>
