<svg width="24" height="25" viewBox="0 0 24 25" fill="none" xmlns="http://www.w3.org/2000/svg">
    <path d="M5 12.7169H3L12 3.71692L21 12.7169H19M5 12.7169V19.7169C5 20.2474 5.21071 20.7561 5.58579 21.1311C5.96086 21.5062 6.46957 21.7169 7 21.7169H17C17.5304 21.7169 18.0391 21.5062 18.4142 21.1311C18.7893 20.7561 19 20.2474 19 19.7169V12.7169" stroke="white" stroke-width="2" stroke-linecap="round" stroke-linejoin="round"/>
    <path d="M9 21.7169V15.7169C9 15.1865 9.21071 14.6778 9.58579 14.3027C9.96086 13.9276 10.4696 13.7169 11 13.7169H13C13.5304 13.7169 14.0391 13.9276 14.4142 14.3027C14.7893 14.6778 15 15.1865 15 15.7169V21.7169" stroke="white" stroke-width="2" stroke-linecap="round" stroke-linejoin="round"/>
</svg>
