<svg width="24" height="25" viewBox="0 0 24 25" fill="none" xmlns="http://www.w3.org/2000/svg">
<path d="M14.0597 10.6569L12.9997 10.1669C12.9124 10.1271 12.8384 10.0631 12.7865 9.98242C12.7346 9.90174 12.707 9.80784 12.707 9.71191C12.707 9.61598 12.7346 9.52208 12.7865 9.4414C12.8384 9.36073 12.9124 9.29668 12.9997 9.25691L14.0597 8.76691L14.5497 7.71691C14.5895 7.62962 14.6535 7.5556 14.7342 7.50371C14.8149 7.45181 14.9088 7.42421 15.0047 7.42421C15.1007 7.42421 15.1946 7.45181 15.2752 7.50371C15.3559 7.5556 15.42 7.62962 15.4597 7.71691L15.9497 8.77691L16.9997 9.26691C17.087 9.30668 17.161 9.37073 17.2129 9.4514C17.2648 9.53208 17.2924 9.62598 17.2924 9.72191C17.2924 9.81784 17.2648 9.91174 17.2129 9.99242C17.161 10.0731 17.087 10.1371 16.9997 10.1769L15.9397 10.6669L15.4497 11.7169C15.41 11.8042 15.3459 11.8782 15.2652 11.9301C15.1846 11.982 15.0907 12.0096 14.9947 12.0096C14.8988 12.0096 14.8049 11.982 14.7242 11.9301C14.6435 11.8782 14.5795 11.8042 14.5397 11.7169L14.0597 10.6569ZM4.44973 13.7169L4.93973 12.6569L5.99973 12.1669C6.08702 12.1271 6.16103 12.0631 6.21293 11.9824C6.26483 11.9017 6.29242 11.8078 6.29242 11.7119C6.29242 11.616 6.26483 11.5221 6.21293 11.4414C6.16103 11.3607 6.08702 11.2967 5.99973 11.2569L4.93973 10.7669L4.44973 9.71691C4.41118 9.62971 4.34813 9.55558 4.26824 9.50355C4.18835 9.45152 4.09507 9.42382 3.99973 9.42382C3.90439 9.42382 3.8111 9.45152 3.73121 9.50355C3.65132 9.55558 3.58827 9.62971 3.54973 9.71691L3.05973 10.7769L1.99973 11.2669C1.91243 11.3067 1.83842 11.3707 1.78652 11.4514C1.73463 11.5321 1.70703 11.626 1.70703 11.7219C1.70703 11.8178 1.73463 11.9117 1.78652 11.9924C1.83842 12.0731 1.91243 12.1371 1.99973 12.1769L3.05973 12.6669L3.54973 13.7169C3.71973 14.1069 4.27973 14.1069 4.44973 13.7169ZM8.95973 8.70691L9.58973 7.30691L10.9897 6.67691C11.077 6.63714 11.151 6.57309 11.2029 6.49242C11.2548 6.41174 11.2824 6.31784 11.2824 6.22191C11.2824 6.12598 11.2548 6.03208 11.2029 5.9514C11.151 5.87073 11.077 5.80668 10.9897 5.76691L9.58973 5.13691L8.95973 3.73691C8.91995 3.64962 8.85591 3.57561 8.77523 3.52371C8.69456 3.47181 8.60066 3.44421 8.50473 3.44421C8.4088 3.44421 8.3149 3.47181 8.23422 3.52371C8.15354 3.57561 8.0895 3.64962 8.04973 3.73691L7.41973 5.13691L6.01973 5.76691C5.93243 5.80668 5.85842 5.87073 5.80652 5.9514C5.75463 6.03208 5.72703 6.12598 5.72703 6.22191C5.72703 6.31784 5.75463 6.41174 5.80652 6.49242C5.85842 6.57309 5.93243 6.63714 6.01973 6.67691L7.41973 7.30691L8.04973 8.70691C8.21973 9.09691 8.77973 9.09691 8.95973 8.70691ZM22.3397 8.98691C22.2436 8.8911 22.129 8.81585 22.0029 8.76575C21.8768 8.71565 21.7418 8.69174 21.6061 8.69549C21.4705 8.69923 21.337 8.73054 21.2138 8.78752C21.0907 8.8445 20.9804 8.92595 20.8897 9.02691L14.4997 16.2069L11.2097 12.9169C11.1172 12.8242 11.0073 12.7507 10.8864 12.7005C10.7654 12.6503 10.6357 12.6245 10.5047 12.6245C10.3738 12.6245 10.2441 12.6503 10.1231 12.7005C10.0021 12.7507 9.89224 12.8242 9.79973 12.9169L3.75973 18.9669C3.34973 19.3769 3.34973 20.0569 3.75973 20.4669C4.16973 20.8769 4.84973 20.8769 5.25973 20.4669L10.5097 15.2069L13.7597 18.4569C14.1697 18.8669 14.8297 18.8469 15.2097 18.4169L22.3797 10.3469C22.7297 9.95691 22.7097 9.35691 22.3397 8.98691Z" fill="white"/>
</svg>
