<svg width="279" viewBox="0 0 279 100" fill="none" xmlns="http://www.w3.org/2000/svg">
<mask id="mask0_11_29" style="mask-type:luminance" maskUnits="userSpaceOnUse" x="0" y="34" width="43" height="66">
<path d="M0.489258 34.6667H42.333V99.6251H0.489258V34.6667Z" fill="white"/>
</mask>
<g mask="url(#mask0_11_29)">
<path d="M28.1298 78.7397C19.5517 72.1928 14.0048 61.8803 14.0048 50.297C14.0048 47.5574 14.2965 44.8647 14.8955 42.2605L2.50484 34.9845C0.905885 39.9064 0.0933838 45.0418 0.0933838 50.297C0.0933838 57.0001 1.40588 63.5001 3.99963 69.6303C6.49963 75.547 10.083 80.8543 14.6403 85.4168C18.5882 89.3595 23.0986 92.573 28.0778 94.9897C28.8486 95.3647 29.6351 95.7189 30.4319 96.0574C34.1507 97.6303 38.0101 98.7293 41.9736 99.3543V58.1876L28.1298 50.0262V78.7397Z" fill="white"/>
</g>
<mask id="mask1_11_29" style="mask-type:luminance" maskUnits="userSpaceOnUse" x="7" y="0" width="93" height="100">
<path d="M7.66699 0.625H99.4899V99.625H7.66699V0.625Z" fill="white"/>
</mask>
<g mask="url(#mask1_11_29)">
<path d="M95.3025 30.4583C92.667 24.4063 88.8962 19.0104 84.1097 14.4219C83.3545 13.6979 82.5629 12.9844 81.7608 12.3073L81.7556 12.3125C81.6202 12.1979 81.49 12.0833 81.3493 11.9688L49.7608 30.5365L32.542 20.4167L62.8181 2.35938C58.6097 1.21875 54.2243 0.625 49.7608 0.625C44.6097 0.625 39.5785 1.40625 34.74 2.9375C33.2816 3.40104 31.8441 3.93229 30.4222 4.53125C25.9743 6.41146 21.8702 8.91146 18.167 11.974C17.1774 12.7917 16.2139 13.6458 15.2816 14.5469L15.2504 14.5625L14.6722 15.1406L14.641 15.1771C12.391 17.4271 10.3806 19.8594 8.61495 22.4635C8.61495 22.4635 8.61495 22.4688 8.60974 22.4688L49.7608 46.6406L78.9014 29.5156C83.2191 35.5313 85.5525 42.7135 85.5525 50.2917C85.5525 61.8802 79.9691 72.1927 71.4639 78.7344V50.0313L57.5472 58.1875V99.3542C61.516 98.7292 65.3702 97.6302 69.0941 96.0573C69.8858 95.7188 70.6722 95.3646 71.4431 94.9896C76.4222 92.5729 80.9327 89.3594 84.8806 85.4167C89.4379 80.8542 93.0212 75.5469 95.5212 69.6302C98.1097 63.5 99.4222 56.9948 99.4222 50.2917C99.4222 43.401 98.0368 36.7292 95.3025 30.4583Z" fill="white"/>
</g>
<path d="M131.047 97.2239V2.76033" stroke="white" stroke-width="5" stroke-linecap="round"/>
<path d="M175.679 64.2751L182.7 41.2959L189.7 64.2751H193.595L202.075 35.6709H198.47L191.429 59.3584L184.345 35.6709H181.033L173.991 59.3167L166.908 35.6709H163.304L171.783 64.2751H175.679Z" fill="white"/>
<path d="M215.734 64.2751V35.6709H212.275V64.2751H215.734Z" fill="white"/>
<path d="M238.531 64.6501C245.052 64.6501 248.552 61.3584 248.552 56.2959C248.552 50.0251 243.406 48.9417 238.718 47.9209C234.885 47.1084 231.406 46.3584 231.406 42.8584C231.406 40.1292 233.427 38.3584 237.302 38.3584C240.448 38.3584 243.552 39.6292 244.385 43.5459H247.718C246.781 37.6501 242.177 35.2959 237.323 35.2959C231.739 35.2959 227.948 38.2959 227.948 43.1709C227.948 48.7959 232.718 49.7959 237.177 50.7334C241.239 51.6084 245.093 52.4209 245.093 56.5042C245.093 59.9209 242.698 61.5667 238.677 61.5667C235.114 61.5667 231.177 60.1917 230.281 55.6084H226.802C227.76 62.0251 232.864 64.6501 238.531 64.6501Z" fill="white"/>
<path d="M278.403 64.2751V61.1709H263.362V51.4417H276.632V48.3792H263.362V38.7751H278.403V35.6709H259.903V64.2751H278.403Z" fill="white"/>
</svg>
