<svg width="24" height="25" viewBox="0 0 24 25" fill="none" xmlns="http://www.w3.org/2000/svg">
<path d="M19.5 7.46692H4.5C3.25736 7.46692 2.25 8.47428 2.25 9.71692V18.7169C2.25 19.9596 3.25736 20.9669 4.5 20.9669H19.5C20.7426 20.9669 21.75 19.9596 21.75 18.7169V9.71692C21.75 8.47428 20.7426 7.46692 19.5 7.46692Z" stroke="white" stroke-width="2" stroke-linejoin="round"/>
<path d="M19.2825 7.4669V6.06065C19.2824 5.71574 19.2062 5.37512 19.0592 5.06307C18.9123 4.75102 18.6984 4.47524 18.4326 4.25541C18.1668 4.03558 17.8558 3.87711 17.5217 3.79132C17.1877 3.70553 16.8388 3.69452 16.5 3.75908L4.155 5.86612C3.6189 5.96828 3.13526 6.25432 2.78749 6.67492C2.43972 7.09551 2.24963 7.62428 2.25 8.17002V10.4669" stroke="white" stroke-width="2" stroke-linejoin="round"/>
<path d="M17.25 15.7169C16.9533 15.7169 16.6633 15.6289 16.4166 15.4641C16.17 15.2993 15.9777 15.065 15.8642 14.7909C15.7506 14.5169 15.7209 14.2153 15.7788 13.9243C15.8367 13.6333 15.9796 13.366 16.1893 13.1563C16.3991 12.9465 16.6664 12.8036 16.9574 12.7457C17.2483 12.6879 17.5499 12.7176 17.824 12.8311C18.0981 12.9446 18.3324 13.1369 18.4972 13.3836C18.662 13.6302 18.75 13.9202 18.75 14.2169C18.75 14.6147 18.592 14.9963 18.3107 15.2776C18.0294 15.5589 17.6478 15.7169 17.25 15.7169Z" fill="white"/>
</svg>
