<svg width="32" height="32" viewBox="0 0 32 32" fill="none" xmlns="http://www.w3.org/2000/svg">
<rect width="32" height="32" rx="4" fill="#141A6B"/>
<mask id="mask0_194_2" style="mask-type:luminance" maskUnits="userSpaceOnUse" x="4" y="12" width="11" height="17">
<path d="M4 12.2529H14.1442V28.0008H4V12.2529Z" fill="white"/>
</mask>
<g mask="url(#mask0_194_2)">
<path d="M10.7012 22.9372C8.62159 21.35 7.27686 18.85 7.27686 16.0418C7.27686 15.3776 7.34756 14.7249 7.49277 14.0935L4.48891 12.3296C4.10127 13.5228 3.9043 14.7678 3.9043 16.0418C3.9043 17.6668 4.22249 19.2426 4.85129 20.7288C5.45737 22.1632 6.32607 23.4498 7.4309 24.5559C8.38799 25.5117 9.48146 26.2908 10.6886 26.8767C10.8754 26.9676 11.0661 27.0534 11.2593 27.1355C12.1608 27.5168 13.0964 27.7833 14.0573 27.9348V17.9547L10.7012 15.9761V22.9372Z" fill="white"/>
</g>
<mask id="mask1_194_2" style="mask-type:luminance" maskUnits="userSpaceOnUse" x="5" y="4" width="24" height="25">
<path d="M5.74023 4H28.0009V28.0006H5.74023V4Z" fill="white"/>
</mask>
<g mask="url(#mask1_194_2)">
<path d="M26.9847 11.2325C26.3458 9.76529 25.4316 8.45718 24.2713 7.34478C24.0882 7.16927 23.8962 6.99629 23.7018 6.83214L23.7005 6.8334C23.6677 6.80563 23.6361 6.77785 23.602 6.75007L15.944 11.2514L11.7697 8.7981L19.1095 4.42046C18.0893 4.14394 17.0261 4 15.944 4C14.6953 4 13.4755 4.1894 12.3025 4.56062C11.949 4.673 11.6005 4.80179 11.2558 4.94699C10.1775 5.40281 9.1825 6.00889 8.28475 6.75133C8.04484 6.94957 7.81125 7.15664 7.58524 7.37508L7.57766 7.37887L7.43751 7.51903L7.42993 7.52787C6.88446 8.07333 6.39708 8.66299 5.96904 9.29432C5.96904 9.29432 5.96904 9.29559 5.96777 9.29559L15.944 15.1556L23.0086 11.004C24.0553 12.4623 24.621 14.2035 24.621 16.0407C24.621 18.8501 23.2674 21.3502 21.2055 22.9361V15.9776L17.8317 17.9549V27.9349C18.7938 27.7834 19.7282 27.517 20.631 27.1357C20.8229 27.0536 21.0136 26.9677 21.2005 26.8768C22.4076 26.291 23.501 25.5119 24.4581 24.5561C25.563 23.45 26.4317 22.1633 27.0377 20.729C27.6653 19.2428 27.9835 17.6657 27.9835 16.0407C27.9835 14.3702 27.6476 12.7527 26.9847 11.2325Z" fill="white"/>
</g>
</svg>
